<?xml version="1.0" encoding="UTF-8"?><svg id="Layer_1" xmlns="http://www.w3.org/2000/svg" viewBox="0 0 36.72 64.09"><defs><style>.cls-1{fill:#f9ed23;}</style></defs><path class="cls-1" d="M18.36,7.16c1.97,0,3.57-1.61,3.57-3.58s-1.6-3.58-3.57-3.58-3.58,1.61-3.58,3.58,1.61,3.58,3.58,3.58m0-4.61c.56,0,1.03,.46,1.03,1.03s-.46,1.03-1.03,1.03-1.04-.46-1.04-1.03,.46-1.03,1.04-1.03"/><path class="cls-1" d="M8.59,20.17h5.98l3.8-3.79,3.79,3.79h5.98c1.97,0,3.58-1.6,3.58-3.58s-1.6-3.58-3.58-3.58-3.58,1.6-3.58,3.58c0,.36,.05,.7,.15,1.03h-1.5l-4.85-4.85-4.85,4.85h-1.5c.1-.33,.15-.67,.15-1.03,0-1.97-1.6-3.58-3.58-3.58s-3.58,1.6-3.58,3.58,1.61,3.58,3.58,3.58m18.52-3.58c0-.57,.46-1.03,1.03-1.03s1.03,.46,1.03,1.03-.46,1.03-1.03,1.03-1.03-.46-1.03-1.03m-18.52-1.03c.57,0,1.03,.46,1.03,1.03s-.46,1.03-1.03,1.03-1.03-.46-1.03-1.03,.46-1.03,1.03-1.03"/><path class="cls-1" d="M23.73,23.28c-.17-.05-.34-.1-.5-.14l-2.05,2.05V61.12l2.55-2.69V25.98c6.08,2.2,10.44,8.04,10.44,14.87,0,6.24-3.63,11.64-8.88,14.2v2.8c6.7-2.74,11.43-9.33,11.43-17,0-8.26-5.48-15.26-12.99-17.56"/><path class="cls-1" d="M12.99,23.28C5.48,25.58,0,32.58,0,40.84c0,7.68,4.74,14.27,11.43,17v-2.8c-5.26-2.57-8.88-7.97-8.88-14.2,0-6.84,4.35-12.67,10.44-14.87V58.42l2.54,2.7V25.2l-2.05-2.06c-.17,.04-.33,.09-.5,.14"/><path class="cls-1" d="M13.31,11.21h10.1c.71,0,1.27-.57,1.27-1.27s-.57-1.28-1.27-1.28H13.31c-.71,0-1.27,.57-1.27,1.28s.57,1.27,1.27,1.27"/><polygon class="cls-1" points="20.08 24.09 21.98 22.19 18.36 18.57 14.74 22.19 17.09 24.54 17.09 58.42 17.09 62.75 18.36 64.09 19.63 62.75 19.63 58.42 19.63 24.54 20.08 24.09"/><path class="cls-1" d="M11.42,31.23v-3.01c-4.45,2.46-7.47,7.19-7.47,12.62s3.02,10.17,7.47,12.62v-3.01c-2.98-2.16-4.92-5.66-4.92-9.61s1.95-7.45,4.92-9.61"/><path class="cls-1" d="M25.29,50.46v3.01c4.45-2.46,7.48-7.2,7.48-12.63s-3.03-10.18-7.48-12.63v3.01c2.98,2.16,4.93,5.67,4.93,9.62s-1.95,7.47-4.93,9.62"/></svg>