<?xml version="1.0" encoding="UTF-8"?><svg id="Layer_1" xmlns="http://www.w3.org/2000/svg" viewBox="0 0 262.69 102.31"><defs><style>.cls-1{fill:#f9ed23;}</style></defs><path class="cls-1" d="M131.78,5.78c1.59,0,2.88-1.3,2.88-2.89s-1.29-2.89-2.88-2.89-2.89,1.29-2.89,2.89,1.3,2.89,2.89,2.89m0-3.72c.46,0,.83,.37,.83,.83s-.37,.83-.83,.83-.84-.37-.84-.83,.38-.83,.84-.83"/><path class="cls-1" d="M123.9,16.27h4.82l3.06-3.06,3.06,3.06h4.82c1.59,0,2.89-1.29,2.89-2.89s-1.29-2.89-2.89-2.89-2.89,1.29-2.89,2.89c0,.29,.04,.57,.12,.83h-1.21l-3.91-3.91-3.91,3.91h-1.21c.08-.26,.12-.54,.12-.83,0-1.59-1.29-2.89-2.89-2.89s-2.89,1.29-2.89,2.89,1.3,2.89,2.89,2.89m14.94-2.89c0-.46,.38-.83,.83-.83s.83,.37,.83,.83-.37,.83-.83,.83-.83-.37-.83-.83m-14.94-.83c.46,0,.83,.37,.83,.83s-.37,.83-.83,.83-.83-.37-.83-.83,.37-.83,.83-.83"/><path class="cls-1" d="M136.12,18.78c-.14-.04-.27-.08-.4-.12l-1.65,1.65v28.99l2.06-2.17V20.95c4.9,1.77,8.42,6.48,8.42,12,0,5.03-2.93,9.39-7.17,11.46v2.26c5.4-2.21,9.22-7.53,9.22-13.72,0-6.66-4.42-12.31-10.48-14.17"/><path class="cls-1" d="M127.45,18.78c-6.06,1.86-10.48,7.5-10.48,14.17,0,6.2,3.82,11.51,9.22,13.72v-2.26c-4.24-2.07-7.17-6.43-7.17-11.46,0-5.52,3.51-10.22,8.42-12v26.18l2.05,2.17V20.32l-1.65-1.66c-.13,.04-.27,.07-.4,.12"/><path class="cls-1" d="M127.71,9.04h8.15c.57,0,1.03-.46,1.03-1.03s-.46-1.03-1.03-1.03h-8.15c-.57,0-1.03,.46-1.03,1.03s.46,1.03,1.03,1.03"/><polygon class="cls-1" points="133.17 19.43 134.7 17.91 131.78 14.99 128.86 17.91 130.75 19.8 130.75 47.14 130.75 50.62 131.78 51.71 132.81 50.62 132.81 47.14 132.81 19.8 133.17 19.43"/><path class="cls-1" d="M126.18,25.19v-2.43c-3.59,1.98-6.02,5.8-6.02,10.19s2.44,8.2,6.02,10.18v-2.43c-2.4-1.74-3.97-4.57-3.97-7.75s1.57-6.01,3.97-7.75"/><path class="cls-1" d="M137.37,40.71v2.43c3.59-1.98,6.04-5.81,6.04-10.19s-2.44-8.21-6.04-10.19v2.43c2.41,1.74,3.98,4.57,3.98,7.76s-1.57,6.02-3.98,7.76"/><path class="cls-1" d="M6.85,89.1c1.23-.82,2.2-1.61,2.92-2.35,.71-.75,1.83-1.93,3.35-3.58,1.52-1.64,2.43-2.73,2.73-3.27,.3-.54,.45-.93,.45-1.17,0-.29-.17-.55-.5-.79-.34-.23-.73-.39-1.19-.47-.51-.08-.76-.22-.76-.44s.21-.34,.63-.34c.09,0,.23,0,.42-.02,.47-.02,1.88-.04,4.23-.04,1.61,0,2.74,.02,3.38,.05s.95,.15,.95,.35c0,.22-.18,.35-.53,.4-1.18,.17-2.21,.49-3.08,.96-.87,.48-2.22,1.6-4.05,3.36-1.83,1.76-3.41,3.47-4.73,5.12,1.47,0,2.71,.21,3.71,.62,1,.42,1.84,1.13,2.5,2.14s1.24,2.73,1.72,5.15c.84,4.06,2.35,6.18,4.52,6.36,.48,.04,.73,.17,.73,.39,0,.18-.11,.28-.34,.28l-1.76-.04c-2.59,0-4.08,.03-4.46,.07-.62-.83-1.03-1.64-1.21-2.44-.18-.8-.44-2.21-.75-4.21-.28-1.75-.74-3.37-1.38-4.86s-1.64-2.23-3-2.23c-.9,0-1.84,.3-2.8,.89-.97,.59-1.52,1.03-1.68,1.32-.15,.29-.23,1.97-.23,5.04,0,2.16,.07,3.5,.2,4.01s.43,.91,.88,1.2,1.06,.48,1.82,.55c.46,.05,.69,.19,.69,.42s-.16,.32-.48,.32h-.23c-.36-.03-1.65-.04-3.89-.04-2.7,0-4.22,.03-4.58,.08-.18,.03-.31,.04-.4,.04-.29,0-.44-.11-.44-.34,0-.2,.18-.33,.53-.38,.68-.09,1.18-.28,1.52-.56s.55-.62,.65-.99c.1-.38,.22-1.63,.38-3.77,.16-2.14,.24-3.92,.24-5.34,0-1.88-.02-3.48-.06-4.79s-.11-2.74-.23-4.28c-.11-1.54-.24-2.47-.38-2.78s-.34-.55-.59-.73-.85-.32-1.79-.43c-.32-.04-.48-.15-.48-.35,0-.28,.29-.42,.88-.42l1.55-.02,6.77-.08c.34,0,.52,.11,.52,.32,0,.12-.06,.21-.17,.27-.11,.05-.46,.12-1.05,.19-.6,.08-.97,.15-1.12,.22s-.31,.24-.46,.5c-.15,.26-.23,.69-.23,1.29,0,1.44,.07,4.65,.21,9.65"/><path class="cls-1" d="M27.56,76.64l3.48,.08,5.33-.08c.64,0,.96,.13,.96,.38,0,.19-.17,.31-.52,.36-1.41,.18-2.29,.69-2.64,1.52-.35,.84-.52,3.94-.52,9.31,0,1.97,.05,4.19,.15,6.65,.1,2.47,.22,3.94,.34,4.43,.13,.48,.37,.88,.72,1.18s1.02,.52,1.98,.65c.32,.04,.48,.16,.48,.36,0,.23-.15,.34-.44,.34l-4.74-.04-4.03,.06c-.45,0-.67-.13-.67-.38s.18-.4,.53-.4c1.18-.03,1.88-.42,2.08-1.18,.2-.76,.31-3.2,.31-7.3s-.04-7.18-.1-9.63c-.07-2.45-.28-3.95-.62-4.5s-.99-.89-1.94-1.03c-.36-.06-.54-.21-.54-.44s.13-.35,.4-.35"/><path class="cls-1" d="M46.55,76.97c.76,1.03,2.08,2.62,3.97,4.79l6.1,7.07,5.87,6.79c.13-2.3,.19-5.29,.19-8.96,0-2.76-.06-4.61-.17-5.54-.11-.93-.54-1.72-1.27-2.35-.73-.64-1.64-.95-2.73-.95-.51,0-.77-.11-.77-.32,0-.13,.05-.22,.16-.28s.96-.11,2.56-.17c1.6-.06,2.95-.09,4.04-.09l2.58,.02h.42c.39,0,.59,.11,.59,.33,0,.2-.17,.32-.52,.35-1.28,.14-2.21,.48-2.77,1-.56,.53-.9,1.29-1.01,2.28s-.16,4.33-.16,10.02l-.19,10.08c0,.51-.13,.76-.38,.76-.06,0-.15-.03-.26-.09s-.68-.7-1.71-1.93c-1.03-1.23-2.3-2.7-3.8-4.41-1.51-1.71-2.69-3.11-3.56-4.18-1.89-2.3-3.09-3.72-3.58-4.25-1.84-1.96-2.93-3.22-3.26-3.78-.22-.38-.41-.57-.59-.57-.14,0-.21,.25-.21,.74l.04,2.95c0,3.75,.1,6.74,.3,8.98,.21,2.24,.42,3.55,.64,3.94s.61,.78,1.16,1.17,1.14,.59,1.76,.59c.84,0,1.26,.15,1.26,.46,0,.23-.23,.35-.71,.35l-9.17-.02c-.43,0-.65-.11-.65-.32,0-.25,.21-.38,.63-.38,1.56,0,2.61-.35,3.13-1.04s.78-2.16,.78-4.41l-.16-6.69c0-3.95-.1-6.28-.32-6.99s-.7-1.56-1.46-2.57-1.62-1.58-2.59-1.71c-.43-.05-.65-.16-.65-.34,0-.24,.28-.36,.84-.36l5.61,.04h.02Z"/><path class="cls-1" d="M92.3,84.84c-.17,0-.34-.2-.52-.61-1.04-2.29-2.41-4.06-4.13-5.3-1.71-1.24-3.53-1.87-5.46-1.87-1.59,0-3.13,.48-4.62,1.44s-2.7,2.44-3.64,4.44c-.94,2-1.41,4.14-1.41,6.4,0,3.23,.97,6.02,2.9,8.37s4.35,3.53,7.25,3.53c1.03,0,1.91-.16,2.63-.48s1.41-.78,2.05-1.37c.64-.6,1.03-1.04,1.16-1.33,.14-.29,.2-1.06,.2-2.31,0-2.08-.28-3.46-.83-4.12-.55-.66-1.44-.99-2.66-.99l-.59,.02c-.37,0-.55-.12-.55-.36,0-.29,.2-.44,.61-.44l1.01,.04,4.31-.06,5.28-.11c.29,0,.44,.13,.44,.4s-.16,.41-.49,.44c-.79,.08-1.43,.25-1.93,.51-.49,.27-.8,.57-.92,.92-.12,.34-.17,.92-.17,1.73,0,2.98-.07,4.61-.21,4.9s-1.32,.96-3.55,2c-2.23,1.04-4.46,1.56-6.71,1.56-3.72,0-6.91-1.2-9.55-3.58-2.65-2.39-3.97-5.42-3.97-9.08,0-2.52,.63-4.8,1.88-6.84s2.96-3.62,5.14-4.75,4.39-1.69,6.64-1.69c2.11,0,4.39,.6,6.83,1.81,.69,.34,1.17,.51,1.45,.51,.39,0,.7-.17,.92-.51,.19-.29,.36-.44,.51-.44,.29,0,.47,.37,.52,1.11,.08,1.16,.26,2.92,.55,5.3,.03,.13,.04,.24,.04,.34,0,.3-.13,.46-.4,.46"/><path class="cls-1" d="M97.87,76.47c.6,0,1.12,.21,1.57,.64,.45,.43,.68,.97,.68,1.63,0,1.25-.66,2.42-1.98,3.54-1.32,1.11-2.16,1.67-2.53,1.67-.24,0-.36-.11-.36-.32,0-.11,.44-.53,1.32-1.26,.98-.81,1.47-1.51,1.47-2.08,0-.33-.3-.64-.9-.93-.63-.32-.95-.78-.95-1.37,0-.41,.15-.76,.46-1.06,.31-.3,.71-.45,1.22-.45"/><path class="cls-1" d="M114.44,78.19c.35-.34,.57-.7,.69-1.07,.1-.31,.25-.46,.44-.46,.1,0,.21,.06,.34,.19,.09,.46,.21,1.38,.38,2.77l.46,3.59c0,.23-.14,.34-.42,.34-.15,0-.29-.13-.4-.38-.67-1.67-1.67-3.05-2.99-4.16-1.32-1.09-2.76-1.64-4.33-1.64s-2.7,.46-3.48,1.39c-.78,.93-1.17,1.91-1.17,2.96,0,1.27,.43,2.24,1.28,2.92,.85,.67,2.6,1.44,5.26,2.29,1.96,.61,3.42,1.2,4.39,1.77,.97,.57,1.79,1.37,2.45,2.4,.66,1.03,.99,2.14,.99,3.32,0,2.01-.83,3.81-2.5,5.4s-3.71,2.38-6.12,2.38c-2.17,0-4.36-.68-6.56-2.04-.43,.36-.71,.77-.84,1.26-.1,.41-.27,.61-.5,.61-.2,0-.35-.26-.44-.78s-.27-2.99-.55-7.4c.05-.15,.18-.23,.4-.23,.19,0,.34,.14,.46,.42,1.96,4.92,4.69,7.38,8.2,7.38,1.74,0,3.11-.52,4.09-1.58,.98-1.05,1.48-2.25,1.48-3.61,0-.94-.26-1.81-.79-2.59-.53-.79-1.23-1.42-2.1-1.91-.87-.48-2.25-1.02-4.13-1.62-2.42-.78-4.06-1.51-4.93-2.2s-1.51-1.47-1.92-2.35c-.41-.87-.61-1.71-.61-2.53,0-1.69,.77-3.19,2.3-4.5s3.41-1.96,5.63-1.96c.84,0,1.72,.13,2.64,.4s1.89,.67,2.89,1.22"/><path class="cls-1" d="M153.75,78.42c.7-.62,1.1-1.04,1.2-1.26,.13-.3,.31-.46,.55-.46,.26,0,.39,.23,.42,.69l.42,6.65c0,.38-.02,.61-.05,.7-.03,.08-.12,.12-.28,.12-.21,0-.42-.27-.65-.82-.84-2.03-2.01-3.68-3.51-4.98-1.51-1.29-3.15-1.93-4.92-1.93-1.55,0-2.97,.5-4.27,1.5s-2.31,2.42-3.02,4.27c-.72,1.85-1.08,3.84-1.08,5.96,0,3.61,.99,6.55,2.99,8.8,1.99,2.26,4.21,3.39,6.67,3.39,1.67,0,3.2-.53,4.59-1.58,1.4-1.05,2.45-2.28,3.17-3.66,.19-.38,.39-.57,.59-.57,.28,0,.42,.15,.42,.46,0,.37-.48,1.18-1.45,2.42-.97,1.25-2.23,2.26-3.81,3.03-1.57,.78-3.26,1.16-5.06,1.16-2.12,0-4.14-.54-6.06-1.62-1.91-1.08-3.43-2.57-4.55-4.48s-1.68-4.14-1.68-6.71,.54-4.78,1.63-6.8,2.62-3.59,4.59-4.71,4.01-1.68,6.11-1.68c1.12,0,2.26,.18,3.43,.52,1.17,.35,2.37,.88,3.59,1.59"/><path class="cls-1" d="M158.66,89.15c0-1.72,.52-3.6,1.56-5.65s2.56-3.75,4.57-5.08c2-1.33,4.26-2,6.78-2,3.52,0,6.43,1.26,8.72,3.77,2.29,2.52,3.44,5.39,3.44,8.62,0,3.43-1.27,6.51-3.81,9.24-2.54,2.73-5.6,4.09-9.17,4.09s-6.29-1.19-8.61-3.58c-2.32-2.39-3.48-5.52-3.48-9.4m4.25-.62c0,2.07,.32,4.2,.95,6.38s1.63,3.77,2.99,4.75,2.81,1.48,4.36,1.48c2.5,0,4.5-1.22,6.01-3.65,1.51-2.44,2.26-5.26,2.26-8.46s-.77-5.83-2.3-8.18c-1.54-2.35-3.54-3.52-6.02-3.52-1.87,0-3.42,.63-4.67,1.88s-2.15,2.75-2.72,4.49-.86,3.35-.86,4.83"/><path class="cls-1" d="M184.33,76.84h9.55c.55,0,.82,.11,.82,.34s-.2,.36-.61,.4c-.9,.09-1.57,.34-2,.74-.43,.41-.76,1.12-.98,2.16-.22,1.03-.33,3.23-.33,6.61,0,4.06,.12,6.86,.35,8.43,.23,1.56,.97,2.81,2.21,3.73s2.93,1.38,5.06,1.38c2.24,0,3.94-.43,5.11-1.28s1.93-2.12,2.28-3.8,.52-5.32,.52-10.93c0-2.88-.3-4.78-.9-5.67-.6-.9-1.48-1.34-2.65-1.34-.47,0-.71-.13-.71-.4,0-.25,.31-.38,.93-.38h7.63c.34,0,.51,.13,.51,.38,0,.18-.14,.29-.42,.33-.97,.14-1.68,.45-2.13,.92s-.75,1.32-.89,2.55c-.14,1.23-.21,3.04-.21,5.43,0,2.99-.11,5.52-.33,7.61-.22,2.08-.7,3.64-1.44,4.66s-1.85,1.85-3.33,2.48-3.3,.95-5.46,.95-4.1-.35-5.65-1.06c-1.56-.71-2.61-1.64-3.17-2.8-.55-1.17-.83-2.9-.83-5.22l.08-5.29c0-4.7-.2-7.57-.6-8.62s-1.26-1.59-2.58-1.61c-.43,0-.65-.11-.65-.32,0-.26,.27-.39,.8-.39"/><path class="cls-1" d="M227.06,89.01c1.76,.77,2.99,1.57,3.68,2.4,.69,.83,1.2,2.12,1.53,3.86,.43,2.29,1.02,3.83,1.78,4.61,.76,.79,1.75,1.21,2.98,1.26,.34,.02,.51,.15,.51,.37s-.19,.33-.59,.33c-3.56,0-5.72-.12-6.47-.35-.76-.24-1.32-1.54-1.69-3.9-.34-2.3-.7-3.98-1.08-5.04s-.97-1.88-1.79-2.44c-.82-.57-2.1-.85-3.84-.85-.66,0-1.41,.07-2.25,.21-.06,.8-.1,1.63-.1,2.49,0,3.26,.05,5.37,.14,6.33s.36,1.66,.81,2.1c.45,.44,1.2,.67,2.26,.69,.46,.01,.69,.12,.69,.33,0,.25-.28,.37-.84,.37h-9.44c-.55,0-.82-.12-.82-.37,0-.22,.22-.33,.65-.33,.96,0,1.64-.14,2.01-.44,.38-.29,.67-.74,.89-1.36s.32-1.73,.32-3.35l-.04-3.89,.02-5.93c0-3.02-.07-5.02-.2-6s-.37-1.64-.71-1.97c-.34-.34-1.14-.6-2.38-.79-.27-.04-.4-.15-.4-.32,0-.2,.27-.31,.8-.31l11.29-.25c3.12,0,5.38,.6,6.78,1.79s2.11,2.65,2.11,4.38c0,1.09-.28,2.09-.85,2.99s-1.24,1.56-2.01,1.96c-.78,.41-2.02,.87-3.74,1.39m-7.23-.49c2.44-.05,4.27-.22,5.49-.52,1.22-.29,2.26-.93,3.12-1.92,.86-.99,1.29-2.17,1.29-3.53,0-1.44-.48-2.69-1.43-3.76-.95-1.07-2.48-1.6-4.58-1.6-1.14,0-2.41,.15-3.79,.46-.16,3.5-.23,6.28-.23,8.35,0,.71,.04,1.55,.13,2.52"/><path class="cls-1" d="M247.43,77.89c-.99-.05-1.69-.08-2.1-.08-2.75,0-4.74,.57-5.97,1.72s-1.95,2.17-2.16,3.06c-.06,.32-.23,.48-.51,.48-.13,0-.25-.06-.36-.18,.06-1.51,.31-3.56,.74-6.13,.61-.01,1-.02,1.16-.02,.99,0,2.32,.05,3.98,.15,1.79,.1,4.54,.15,8.24,.15s6.26-.04,7.4-.13c1.04-.1,2.47-.15,4.29-.15,.15,.92,.25,1.87,.3,2.86,.08,1.13,.15,1.93,.23,2.39,.01,.1,.02,.21,.02,.32,0,.31-.13,.46-.4,.46-.17,0-.3-.05-.41-.16-.11-.11-.35-.47-.73-1.08-.66-1.03-1.35-1.81-2.06-2.34-.71-.53-1.51-.87-2.39-1.02s-2.65-.26-5.32-.31c-.15,1.92-.23,4.11-.23,6.58,0,8.16,.18,12.97,.53,14.43s1.6,2.19,3.75,2.19c.52,0,.78,.11,.78,.33,0,.25-.25,.38-.74,.38h-11.73c-.31,0-.46-.12-.46-.36s.3-.36,.9-.36c1,0,1.81-.28,2.43-.85s.97-1.33,1.07-2.3,.14-3.76,.14-8.37c0-3.94-.13-7.83-.4-11.67"/></svg>